<svg xmlns="http://www.w3.org/2000/svg" viewBox="0 0 1000 460" font-family="sans-serif">
<text x="500.0" y="26" text-anchor="middle" font-size="18" font-weight="bold">Multi-core × performance speedup vs main (PR2)</text>
<line x1="60" y1="310.0" x2="980" y2="310.0" stroke="#e0e0e0"/>
<text x="52" y="314.0" text-anchor="end" font-size="11">0×</text>
<line x1="60" y1="270.0" x2="980" y2="270.0" stroke="#e0e0e0"/>
<text x="52" y="274.0" text-anchor="end" font-size="11">1×</text>
<line x1="60" y1="230.0" x2="980" y2="230.0" stroke="#e0e0e0"/>
<text x="52" y="234.0" text-anchor="end" font-size="11">2×</text>
<line x1="60" y1="190.0" x2="980" y2="190.0" stroke="#e0e0e0"/>
<text x="52" y="194.0" text-anchor="end" font-size="11">3×</text>
<line x1="60" y1="150.0" x2="980" y2="150.0" stroke="#e0e0e0"/>
<text x="52" y="154.0" text-anchor="end" font-size="11">4×</text>
<line x1="60" y1="110.0" x2="980" y2="110.0" stroke="#e0e0e0"/>
<text x="52" y="114.0" text-anchor="end" font-size="11">5×</text>
<line x1="60" y1="70.0" x2="980" y2="70.0" stroke="#e0e0e0"/>
<text x="52" y="74.0" text-anchor="end" font-size="11">6×</text>
<line x1="60" y1="270.0" x2="980" y2="270.0" stroke="#b00" stroke-dasharray="4"/>
<rect x="72.8" y="190.7" width="23.0" height="119.3" fill="#7aa6c2"/>
<text x="84.3" y="187.7" text-anchor="middle" font-size="9">2.98</text>
<rect x="98.3" y="135.5" width="23.0" height="174.5" fill="#4a7fa5"/>
<text x="109.8" y="132.5" text-anchor="middle" font-size="9">4.36</text>
<rect x="123.9" y="109.6" width="23.0" height="200.4" fill="#2e5a7a"/>
<text x="135.4" y="106.6" text-anchor="middle" font-size="9">5.01</text>
<text x="111.1" y="322.0" text-anchor="end" font-size="10" transform="rotate(-40 111.1 322.0)">SimplifiedLinkedList.remove</text>
<rect x="175.0" y="220.7" width="23.0" height="89.3" fill="#7aa6c2"/>
<text x="186.5" y="217.7" text-anchor="middle" font-size="9">2.23</text>
<rect x="200.6" y="160.5" width="23.0" height="149.5" fill="#4a7fa5"/>
<text x="212.1" y="157.5" text-anchor="middle" font-size="9">3.74</text>
<rect x="226.1" y="126.5" width="23.0" height="183.5" fill="#2e5a7a"/>
<text x="237.6" y="123.5" text-anchor="middle" font-size="9">4.59</text>
<text x="213.3" y="322.0" text-anchor="end" font-size="10" transform="rotate(-40 213.3 322.0)">add</text>
<rect x="277.2" y="183.0" width="23.0" height="127.0" fill="#7aa6c2"/>
<text x="288.7" y="180.0" text-anchor="middle" font-size="9">3.17</text>
<rect x="302.8" y="161.1" width="23.0" height="148.9" fill="#4a7fa5"/>
<text x="314.2" y="158.1" text-anchor="middle" font-size="9">3.72</text>
<rect x="328.3" y="215.6" width="23.0" height="94.4" fill="#2e5a7a"/>
<text x="339.8" y="212.6" text-anchor="middle" font-size="9">2.36</text>
<text x="315.5" y="322.0" text-anchor="end" font-size="10" transform="rotate(-40 315.5 322.0)">Saddleback_search</text>
<rect x="379.4" y="188.0" width="23.0" height="122.0" fill="#7aa6c2"/>
<text x="390.9" y="185.0" text-anchor="middle" font-size="9">3.05</text>
<rect x="405.0" y="137.7" width="23.0" height="172.3" fill="#4a7fa5"/>
<text x="416.5" y="134.7" text-anchor="middle" font-size="9">4.31</text>
<rect x="430.5" y="128.0" width="23.0" height="182.0" fill="#2e5a7a"/>
<text x="442.0" y="125.0" text-anchor="middle" font-size="9">4.55</text>
<text x="417.7" y="322.0" text-anchor="end" font-size="10" transform="rotate(-40 417.7 322.0)">symmArray</text>
<rect x="481.6" y="165.9" width="23.0" height="144.1" fill="#7aa6c2"/>
<text x="493.1" y="162.9" text-anchor="middle" font-size="9">3.60</text>
<rect x="507.2" y="112.5" width="23.0" height="197.5" fill="#4a7fa5"/>
<text x="518.7" y="109.5" text-anchor="middle" font-size="9">4.94</text>
<rect x="532.7" y="159.2" width="23.0" height="150.8" fill="#2e5a7a"/>
<text x="544.2" y="156.2" text-anchor="middle" font-size="9">3.77</text>
<text x="519.9" y="322.0" text-anchor="end" font-size="10" transform="rotate(-40 519.9 322.0)">project</text>
<rect x="583.8" y="214.4" width="23.0" height="95.6" fill="#7aa6c2"/>
<text x="595.3" y="211.4" text-anchor="middle" font-size="9">2.39</text>
<rect x="609.3" y="205.1" width="23.0" height="104.9" fill="#4a7fa5"/>
<text x="620.8" y="202.1" text-anchor="middle" font-size="9">2.62</text>
<rect x="634.9" y="200.4" width="23.0" height="109.6" fill="#2e5a7a"/>
<text x="646.4" y="197.4" text-anchor="middle" font-size="9">2.74</text>
<text x="622.1" y="322.0" text-anchor="end" font-size="10" transform="rotate(-40 622.1 322.0)">ArrayList.remove.1</text>
<rect x="686.0" y="209.4" width="23.0" height="100.6" fill="#7aa6c2"/>
<text x="697.5" y="206.4" text-anchor="middle" font-size="9">2.51</text>
<rect x="711.5" y="155.9" width="23.0" height="154.1" fill="#4a7fa5"/>
<text x="723.0" y="152.9" text-anchor="middle" font-size="9">3.85</text>
<rect x="737.1" y="78.2" width="23.0" height="231.8" fill="#2e5a7a"/>
<text x="748.6" y="75.2" text-anchor="middle" font-size="9">5.80</text>
<text x="724.3" y="322.0" text-anchor="end" font-size="10" transform="rotate(-40 724.3 322.0)">ArrayList_concatenate</text>
<rect x="788.2" y="186.9" width="23.0" height="123.1" fill="#7aa6c2"/>
<text x="799.7" y="183.9" text-anchor="middle" font-size="9">3.08</text>
<rect x="813.7" y="131.3" width="23.0" height="178.7" fill="#4a7fa5"/>
<text x="825.2" y="128.3" text-anchor="middle" font-size="9">4.47</text>
<rect x="839.3" y="106.0" width="23.0" height="204.0" fill="#2e5a7a"/>
<text x="850.8" y="103.0" text-anchor="middle" font-size="9">5.10</text>
<text x="826.5" y="322.0" text-anchor="end" font-size="10" transform="rotate(-40 826.5 322.0)">median</text>
<rect x="890.4" y="246.8" width="23.0" height="63.2" fill="#7aa6c2"/>
<text x="901.9" y="243.8" text-anchor="middle" font-size="9">1.58</text>
<rect x="915.9" y="231.8" width="23.0" height="78.2" fill="#4a7fa5"/>
<text x="927.4" y="228.8" text-anchor="middle" font-size="9">1.96</text>
<rect x="941.5" y="236.3" width="23.0" height="73.7" fill="#2e5a7a"/>
<text x="953.0" y="233.3" text-anchor="middle" font-size="9">1.84</text>
<text x="928.7" y="322.0" text-anchor="end" font-size="10" transform="rotate(-40 928.7 322.0)">remFirst</text>
<rect x="60" y="438" width="12" height="12" fill="#7aa6c2"/>
<text x="76" y="448" font-size="11">2× workers</text>
<rect x="150" y="438" width="12" height="12" fill="#4a7fa5"/>
<text x="166" y="448" font-size="11">4× workers</text>
<rect x="240" y="438" width="12" height="12" fill="#2e5a7a"/>
<text x="256" y="448" font-size="11">8× workers</text>
</svg>
