<svg xmlns="http://www.w3.org/2000/svg" viewBox="0 0 1000 460" font-family="sans-serif">
<text x="500.0" y="26" text-anchor="middle" font-size="18" font-weight="bold">Multi-core × performance speedup vs main (PR2)</text>
<line x1="60" y1="310.0" x2="980" y2="310.0" stroke="#e0e0e0"/>
<text x="52" y="314.0" text-anchor="end" font-size="11">0×</text>
<line x1="60" y1="261.6" x2="980" y2="261.6" stroke="#e0e0e0"/>
<text x="52" y="265.6" text-anchor="end" font-size="11">1×</text>
<line x1="60" y1="213.1" x2="980" y2="213.1" stroke="#e0e0e0"/>
<text x="52" y="217.1" text-anchor="end" font-size="11">2×</text>
<line x1="60" y1="164.7" x2="980" y2="164.7" stroke="#e0e0e0"/>
<text x="52" y="168.7" text-anchor="end" font-size="11">3×</text>
<line x1="60" y1="116.3" x2="980" y2="116.3" stroke="#e0e0e0"/>
<text x="52" y="120.3" text-anchor="end" font-size="11">4×</text>
<line x1="60" y1="67.8" x2="980" y2="67.8" stroke="#e0e0e0"/>
<text x="52" y="71.8" text-anchor="end" font-size="11">5×</text>
<line x1="60" y1="261.6" x2="980" y2="261.6" stroke="#b00" stroke-dasharray="4"/>
<rect x="72.8" y="99.3" width="23.0" height="210.7" fill="#7aa6c2"/>
<text x="84.3" y="96.3" text-anchor="middle" font-size="9">4.35</text>
<rect x="98.3" y="92.5" width="23.0" height="217.5" fill="#4a7fa5"/>
<text x="109.8" y="89.5" text-anchor="middle" font-size="9">4.49</text>
<rect x="123.9" y="92.0" width="23.0" height="218.0" fill="#2e5a7a"/>
<text x="135.4" y="89.0" text-anchor="middle" font-size="9">4.50</text>
<text x="111.1" y="322.0" text-anchor="end" font-size="10" transform="rotate(-40 111.1 322.0)">SimplifiedLinkedList.remove</text>
<rect x="175.0" y="193.3" width="23.0" height="116.7" fill="#7aa6c2"/>
<text x="186.5" y="190.3" text-anchor="middle" font-size="9">2.41</text>
<rect x="200.6" y="145.3" width="23.0" height="164.7" fill="#4a7fa5"/>
<text x="212.1" y="142.3" text-anchor="middle" font-size="9">3.40</text>
<rect x="226.1" y="73.6" width="23.0" height="236.4" fill="#2e5a7a"/>
<text x="237.6" y="70.6" text-anchor="middle" font-size="9">4.88</text>
<text x="213.3" y="322.0" text-anchor="end" font-size="10" transform="rotate(-40 213.3 322.0)">add</text>
<rect x="277.2" y="153.6" width="23.0" height="156.4" fill="#7aa6c2"/>
<text x="288.7" y="150.6" text-anchor="middle" font-size="9">3.23</text>
<rect x="302.8" y="138.1" width="23.0" height="171.9" fill="#4a7fa5"/>
<text x="314.3" y="135.1" text-anchor="middle" font-size="9">3.55</text>
<rect x="328.3" y="193.8" width="23.0" height="116.2" fill="#2e5a7a"/>
<text x="339.8" y="190.8" text-anchor="middle" font-size="9">2.40</text>
<text x="315.6" y="322.0" text-anchor="end" font-size="10" transform="rotate(-40 315.6 322.0)">Saddleback_search</text>
<rect x="379.4" y="172.9" width="23.0" height="137.1" fill="#7aa6c2"/>
<text x="390.9" y="169.9" text-anchor="middle" font-size="9">2.83</text>
<rect x="405.0" y="124.5" width="23.0" height="185.5" fill="#4a7fa5"/>
<text x="416.5" y="121.5" text-anchor="middle" font-size="9">3.83</text>
<rect x="430.6" y="120.6" width="23.0" height="189.4" fill="#2e5a7a"/>
<text x="442.1" y="117.6" text-anchor="middle" font-size="9">3.91</text>
<text x="417.8" y="322.0" text-anchor="end" font-size="10" transform="rotate(-40 417.8 322.0)">symmArray</text>
<rect x="481.7" y="143.9" width="23.0" height="166.1" fill="#7aa6c2"/>
<text x="493.2" y="140.9" text-anchor="middle" font-size="9">3.43</text>
<rect x="507.2" y="87.7" width="23.0" height="222.3" fill="#4a7fa5"/>
<text x="518.7" y="84.7" text-anchor="middle" font-size="9">4.59</text>
<rect x="532.8" y="126.4" width="23.0" height="183.6" fill="#2e5a7a"/>
<text x="544.3" y="123.4" text-anchor="middle" font-size="9">3.79</text>
<text x="520.0" y="322.0" text-anchor="end" font-size="10" transform="rotate(-40 520.0 322.0)">project</text>
<rect x="583.9" y="207.8" width="23.0" height="102.2" fill="#7aa6c2"/>
<text x="595.4" y="204.8" text-anchor="middle" font-size="9">2.11</text>
<rect x="609.4" y="190.4" width="23.0" height="119.6" fill="#4a7fa5"/>
<text x="620.9" y="187.4" text-anchor="middle" font-size="9">2.47</text>
<rect x="635.0" y="194.7" width="23.0" height="115.3" fill="#2e5a7a"/>
<text x="646.5" y="191.7" text-anchor="middle" font-size="9">2.38</text>
<text x="622.2" y="322.0" text-anchor="end" font-size="10" transform="rotate(-40 622.2 322.0)">ArrayList.remove.1</text>
<rect x="686.1" y="159.9" width="23.0" height="150.1" fill="#7aa6c2"/>
<text x="697.6" y="156.9" text-anchor="middle" font-size="9">3.10</text>
<rect x="711.7" y="85.3" width="23.0" height="224.7" fill="#4a7fa5"/>
<text x="723.2" y="82.3" text-anchor="middle" font-size="9">4.64</text>
<rect x="737.2" y="92.5" width="23.0" height="217.5" fill="#2e5a7a"/>
<text x="748.7" y="89.5" text-anchor="middle" font-size="9">4.49</text>
<text x="724.4" y="322.0" text-anchor="end" font-size="10" transform="rotate(-40 724.4 322.0)">ArrayList_concatenate</text>
<rect x="788.3" y="144.4" width="23.0" height="165.6" fill="#7aa6c2"/>
<text x="799.8" y="141.4" text-anchor="middle" font-size="9">3.42</text>
<rect x="813.9" y="110.4" width="23.0" height="199.6" fill="#4a7fa5"/>
<text x="825.4" y="107.4" text-anchor="middle" font-size="9">4.12</text>
<rect x="839.4" y="81.9" width="23.0" height="228.1" fill="#2e5a7a"/>
<text x="850.9" y="78.9" text-anchor="middle" font-size="9">4.71</text>
<text x="826.7" y="322.0" text-anchor="end" font-size="10" transform="rotate(-40 826.7 322.0)">median</text>
<rect x="890.6" y="231.1" width="23.0" height="78.9" fill="#7aa6c2"/>
<text x="902.1" y="228.1" text-anchor="middle" font-size="9">1.63</text>
<rect x="916.1" y="211.7" width="23.0" height="98.3" fill="#4a7fa5"/>
<text x="927.6" y="208.7" text-anchor="middle" font-size="9">2.03</text>
<rect x="941.7" y="216.5" width="23.0" height="93.5" fill="#2e5a7a"/>
<text x="953.2" y="213.5" text-anchor="middle" font-size="9">1.93</text>
<text x="928.9" y="322.0" text-anchor="end" font-size="10" transform="rotate(-40 928.9 322.0)">remFirst</text>
<rect x="60" y="438" width="12" height="12" fill="#7aa6c2"/>
<text x="76" y="448" font-size="11">2× workers</text>
<rect x="150" y="438" width="12" height="12" fill="#4a7fa5"/>
<text x="166" y="448" font-size="11">4× workers</text>
<rect x="240" y="438" width="12" height="12" fill="#2e5a7a"/>
<text x="256" y="448" font-size="11">8× workers</text>
</svg>