<svg xmlns="http://www.w3.org/2000/svg" viewBox="0 0 1000 460" font-family="sans-serif">
<text x="500.0" y="26" text-anchor="middle" font-size="18" font-weight="bold">Multi-core speedup vs main (PR1)</text>
<line x1="60" y1="310.0" x2="980" y2="310.0" stroke="#e0e0e0"/>
<text x="52" y="314.0" text-anchor="end" font-size="11">0×</text>
<line x1="60" y1="230.1" x2="980" y2="230.1" stroke="#e0e0e0"/>
<text x="52" y="234.1" text-anchor="end" font-size="11">1×</text>
<line x1="60" y1="150.3" x2="980" y2="150.3" stroke="#e0e0e0"/>
<text x="52" y="154.3" text-anchor="end" font-size="11">2×</text>
<line x1="60" y1="70.4" x2="980" y2="70.4" stroke="#e0e0e0"/>
<text x="52" y="74.4" text-anchor="end" font-size="11">3×</text>
<line x1="60" y1="230.1" x2="980" y2="230.1" stroke="#b00" stroke-dasharray="4"/>
<rect x="72.8" y="183.0" width="23.0" height="127.0" fill="#7aa6c2"/>
<text x="84.3" y="180.0" text-anchor="middle" font-size="9">1.59</text>
<rect x="98.3" y="73.6" width="23.0" height="236.4" fill="#4a7fa5"/>
<text x="109.8" y="70.6" text-anchor="middle" font-size="9">2.96</text>
<rect x="123.9" y="102.4" width="23.0" height="207.6" fill="#2e5a7a"/>
<text x="135.4" y="99.4" text-anchor="middle" font-size="9">2.60</text>
<text x="111.1" y="322.0" text-anchor="end" font-size="10" transform="rotate(-40 111.1 322.0)">SimplifiedLinkedList.remove</text>
<rect x="175.0" y="179.8" width="23.0" height="130.2" fill="#7aa6c2"/>
<text x="186.5" y="176.8" text-anchor="middle" font-size="9">1.63</text>
<rect x="200.6" y="139.1" width="23.0" height="170.9" fill="#4a7fa5"/>
<text x="212.1" y="136.1" text-anchor="middle" font-size="9">2.14</text>
<rect x="226.1" y="155.9" width="23.0" height="154.1" fill="#2e5a7a"/>
<text x="237.6" y="152.9" text-anchor="middle" font-size="9">1.93</text>
<text x="213.3" y="322.0" text-anchor="end" font-size="10" transform="rotate(-40 213.3 322.0)">add</text>
<rect x="277.2" y="203.8" width="23.0" height="106.2" fill="#7aa6c2"/>
<text x="288.7" y="200.8" text-anchor="middle" font-size="9">1.33</text>
<rect x="302.8" y="207.0" width="23.0" height="103.0" fill="#4a7fa5"/>
<text x="314.3" y="204.0" text-anchor="middle" font-size="9">1.29</text>
<rect x="328.3" y="254.9" width="23.0" height="55.1" fill="#2e5a7a"/>
<text x="339.8" y="251.9" text-anchor="middle" font-size="9">0.69</text>
<text x="315.6" y="322.0" text-anchor="end" font-size="10" transform="rotate(-40 315.6 322.0)">Saddleback_search</text>
<rect x="379.4" y="193.4" width="23.0" height="116.6" fill="#7aa6c2"/>
<text x="390.9" y="190.4" text-anchor="middle" font-size="9">1.46</text>
<rect x="405.0" y="161.5" width="23.0" height="148.5" fill="#4a7fa5"/>
<text x="416.5" y="158.5" text-anchor="middle" font-size="9">1.86</text>
<rect x="430.6" y="158.3" width="23.0" height="151.7" fill="#2e5a7a"/>
<text x="442.1" y="155.3" text-anchor="middle" font-size="9">1.90</text>
<text x="417.8" y="322.0" text-anchor="end" font-size="10" transform="rotate(-40 417.8 322.0)">symmArray</text>
<rect x="481.7" y="193.4" width="23.0" height="116.6" fill="#7aa6c2"/>
<text x="493.2" y="190.4" text-anchor="middle" font-size="9">1.46</text>
<rect x="507.2" y="186.2" width="23.0" height="123.8" fill="#4a7fa5"/>
<text x="518.7" y="183.2" text-anchor="middle" font-size="9">1.55</text>
<rect x="532.8" y="219.8" width="23.0" height="90.2" fill="#2e5a7a"/>
<text x="544.3" y="216.8" text-anchor="middle" font-size="9">1.13</text>
<text x="520.0" y="322.0" text-anchor="end" font-size="10" transform="rotate(-40 520.0 322.0)">project</text>
<rect x="583.9" y="189.4" width="23.0" height="120.6" fill="#7aa6c2"/>
<text x="595.4" y="186.4" text-anchor="middle" font-size="9">1.51</text>
<rect x="609.4" y="183.8" width="23.0" height="126.2" fill="#4a7fa5"/>
<text x="620.9" y="180.8" text-anchor="middle" font-size="9">1.58</text>
<rect x="635.0" y="191.0" width="23.0" height="119.0" fill="#2e5a7a"/>
<text x="646.5" y="188.0" text-anchor="middle" font-size="9">1.49</text>
<text x="622.2" y="322.0" text-anchor="end" font-size="10" transform="rotate(-40 622.2 322.0)">ArrayList.remove.1</text>
<rect x="686.1" y="153.5" width="23.0" height="156.5" fill="#7aa6c2"/>
<text x="697.6" y="150.5" text-anchor="middle" font-size="9">1.96</text>
<rect x="711.7" y="84.8" width="23.0" height="225.2" fill="#4a7fa5"/>
<text x="723.2" y="81.8" text-anchor="middle" font-size="9">2.82</text>
<rect x="737.2" y="108.0" width="23.0" height="202.0" fill="#2e5a7a"/>
<text x="748.7" y="105.0" text-anchor="middle" font-size="9">2.53</text>
<text x="724.4" y="322.0" text-anchor="end" font-size="10" transform="rotate(-40 724.4 322.0)">ArrayList_concatenate</text>
<rect x="788.3" y="184.6" width="23.0" height="125.4" fill="#7aa6c2"/>
<text x="799.8" y="181.6" text-anchor="middle" font-size="9">1.57</text>
<rect x="813.9" y="135.9" width="23.0" height="174.1" fill="#4a7fa5"/>
<text x="825.4" y="132.9" text-anchor="middle" font-size="9">2.18</text>
<rect x="839.4" y="140.7" width="23.0" height="169.3" fill="#2e5a7a"/>
<text x="850.9" y="137.7" text-anchor="middle" font-size="9">2.12</text>
<text x="826.7" y="322.0" text-anchor="end" font-size="10" transform="rotate(-40 826.7 322.0)">median</text>
<rect x="890.6" y="218.2" width="23.0" height="91.8" fill="#7aa6c2"/>
<text x="902.1" y="215.2" text-anchor="middle" font-size="9">1.15</text>
<rect x="916.1" y="199.0" width="23.0" height="111.0" fill="#4a7fa5"/>
<text x="927.6" y="196.0" text-anchor="middle" font-size="9">1.39</text>
<rect x="941.7" y="203.8" width="23.0" height="106.2" fill="#2e5a7a"/>
<text x="953.2" y="200.8" text-anchor="middle" font-size="9">1.33</text>
<text x="928.9" y="322.0" text-anchor="end" font-size="10" transform="rotate(-40 928.9 322.0)">remFirst</text>
<rect x="60" y="438" width="12" height="12" fill="#7aa6c2"/>
<text x="76" y="448" font-size="11">2× workers</text>
<rect x="150" y="438" width="12" height="12" fill="#4a7fa5"/>
<text x="166" y="448" font-size="11">4× workers</text>
<rect x="240" y="438" width="12" height="12" fill="#2e5a7a"/>
<text x="256" y="448" font-size="11">8× workers</text>
</svg>